<mxfile host="Electron" modified="2023-10-31T23:48:34.306Z" agent="Mozilla/5.0 (X11; Linux x86_64) AppleWebKit/537.36 (KHTML, like Gecko) draw.io/21.5.0 Chrome/112.0.5615.204 Electron/24.5.1 Safari/537.36" etag="sUbJ9lG2JfCp8WeYeM86" version="21.5.0" type="device">
  <diagram name="Page-1" id="YUDLeq5nMtSEQv6v1oaK">
    <mxGraphModel dx="834" dy="1719" grid="1" gridSize="10" guides="1" tooltips="1" connect="1" arrows="1" fold="1" page="1" pageScale="1" pageWidth="850" pageHeight="1100" math="1" shadow="0">
      <root>
        <mxCell id="0" />
        <mxCell id="1" parent="0" />
        <mxCell id="N5L_XsWH65uDzCeL1PVR-5" style="edgeStyle=orthogonalEdgeStyle;rounded=0;orthogonalLoop=1;jettySize=auto;html=1;endArrow=none;endFill=0;" parent="1" source="N5L_XsWH65uDzCeL1PVR-1" target="N5L_XsWH65uDzCeL1PVR-4" edge="1">
          <mxGeometry relative="1" as="geometry" />
        </mxCell>
        <mxCell id="N5L_XsWH65uDzCeL1PVR-6" style="edgeStyle=orthogonalEdgeStyle;rounded=0;orthogonalLoop=1;jettySize=auto;html=1;entryX=0.506;entryY=0.079;entryDx=0;entryDy=0;entryPerimeter=0;endArrow=none;endFill=0;" parent="1" source="N5L_XsWH65uDzCeL1PVR-1" target="N5L_XsWH65uDzCeL1PVR-2" edge="1">
          <mxGeometry relative="1" as="geometry" />
        </mxCell>
        <mxCell id="N5L_XsWH65uDzCeL1PVR-1" value="" style="shape=waypoint;sketch=0;fillStyle=solid;size=6;pointerEvents=1;points=[];fillColor=none;resizable=0;rotatable=0;perimeter=centerPerimeter;snapToPoint=1;" parent="1" vertex="1">
          <mxGeometry x="120" y="120" width="20" height="20" as="geometry" />
        </mxCell>
        <mxCell id="N5L_XsWH65uDzCeL1PVR-7" style="edgeStyle=orthogonalEdgeStyle;rounded=0;orthogonalLoop=1;jettySize=auto;html=1;endArrow=none;endFill=0;" parent="1" source="N5L_XsWH65uDzCeL1PVR-2" target="N5L_XsWH65uDzCeL1PVR-3" edge="1">
          <mxGeometry relative="1" as="geometry" />
        </mxCell>
        <mxCell id="N5L_XsWH65uDzCeL1PVR-2" value="" style="shape=waypoint;sketch=0;fillStyle=solid;size=6;pointerEvents=1;points=[];fillColor=none;resizable=0;rotatable=0;perimeter=centerPerimeter;snapToPoint=1;" parent="1" vertex="1">
          <mxGeometry x="120" y="180" width="20" height="20" as="geometry" />
        </mxCell>
        <mxCell id="N5L_XsWH65uDzCeL1PVR-8" style="edgeStyle=orthogonalEdgeStyle;rounded=0;orthogonalLoop=1;jettySize=auto;html=1;endArrow=none;endFill=0;" parent="1" source="N5L_XsWH65uDzCeL1PVR-3" target="N5L_XsWH65uDzCeL1PVR-4" edge="1">
          <mxGeometry relative="1" as="geometry" />
        </mxCell>
        <mxCell id="N5L_XsWH65uDzCeL1PVR-3" value="" style="shape=waypoint;sketch=0;fillStyle=solid;size=6;pointerEvents=1;points=[];fillColor=none;resizable=0;rotatable=0;perimeter=centerPerimeter;snapToPoint=1;" parent="1" vertex="1">
          <mxGeometry x="180" y="180" width="20" height="20" as="geometry" />
        </mxCell>
        <mxCell id="N5L_XsWH65uDzCeL1PVR-4" value="" style="shape=waypoint;sketch=0;fillStyle=solid;size=6;pointerEvents=1;points=[];fillColor=none;resizable=0;rotatable=0;perimeter=centerPerimeter;snapToPoint=1;" parent="1" vertex="1">
          <mxGeometry x="180" y="120" width="20" height="20" as="geometry" />
        </mxCell>
        <mxCell id="N5L_XsWH65uDzCeL1PVR-9" value="\((1, 0)\)" style="text;html=1;strokeColor=none;fillColor=none;align=center;verticalAlign=middle;whiteSpace=wrap;rounded=0;" parent="1" vertex="1">
          <mxGeometry x="90" y="110" width="40" height="20" as="geometry" />
        </mxCell>
        <mxCell id="N5L_XsWH65uDzCeL1PVR-10" value="\((1, 1)\)" style="text;html=1;strokeColor=none;fillColor=none;align=center;verticalAlign=middle;whiteSpace=wrap;rounded=0;" parent="1" vertex="1">
          <mxGeometry x="190" y="110" width="40" height="20" as="geometry" />
        </mxCell>
        <mxCell id="N5L_XsWH65uDzCeL1PVR-11" value="\((0, 0)\)" style="text;html=1;strokeColor=none;fillColor=none;align=center;verticalAlign=middle;whiteSpace=wrap;rounded=0;" parent="1" vertex="1">
          <mxGeometry x="90" y="190" width="40" height="20" as="geometry" />
        </mxCell>
        <mxCell id="N5L_XsWH65uDzCeL1PVR-12" value="\((0, 1)\)" style="text;html=1;strokeColor=none;fillColor=none;align=center;verticalAlign=middle;whiteSpace=wrap;rounded=0;" parent="1" vertex="1">
          <mxGeometry x="190" y="190" width="40" height="20" as="geometry" />
        </mxCell>
        <mxCell id="N5L_XsWH65uDzCeL1PVR-13" value="\(B^n\)" style="rounded=1;whiteSpace=wrap;html=1;arcSize=22;" parent="1" vertex="1">
          <mxGeometry x="280" y="120" width="40" height="80" as="geometry" />
        </mxCell>
        <mxCell id="N5L_XsWH65uDzCeL1PVR-17" value="\(B\)" style="rounded=1;whiteSpace=wrap;html=1;arcSize=22;" parent="1" vertex="1">
          <mxGeometry x="400" y="120" width="40" height="80" as="geometry" />
        </mxCell>
        <mxCell id="N5L_XsWH65uDzCeL1PVR-19" value="" style="curved=1;endArrow=classic;html=1;rounded=0;entryX=0;entryY=0.5;entryDx=0;entryDy=0;exitX=1;exitY=0.5;exitDx=0;exitDy=0;endFill=1;" parent="1" source="N5L_XsWH65uDzCeL1PVR-13" target="N5L_XsWH65uDzCeL1PVR-17" edge="1">
          <mxGeometry width="50" height="50" relative="1" as="geometry">
            <mxPoint x="330" y="180" as="sourcePoint" />
            <mxPoint x="380" y="130" as="targetPoint" />
            <Array as="points">
              <mxPoint x="340" y="150" />
              <mxPoint x="380" y="150" />
            </Array>
          </mxGeometry>
        </mxCell>
        <mxCell id="N5L_XsWH65uDzCeL1PVR-20" value="\(F\)" style="text;html=1;strokeColor=none;fillColor=none;align=center;verticalAlign=middle;whiteSpace=wrap;rounded=0;" parent="1" vertex="1">
          <mxGeometry x="340" y="150" width="40" height="20" as="geometry" />
        </mxCell>
        <mxCell id="N5L_XsWH65uDzCeL1PVR-21" value="\[&lt;br&gt;\begin{align*}&lt;br&gt;F: B^n &amp;amp;\rightarrow B \\&lt;br&gt;(x_1, x_2, \ldots, x_n) &amp;amp;\mapsto \{0, 1\}&lt;br&gt;\end{align*}\]" style="text;html=1;strokeColor=none;fillColor=none;align=center;verticalAlign=middle;whiteSpace=wrap;rounded=0;" parent="1" vertex="1">
          <mxGeometry x="310" y="220" width="120" height="20" as="geometry" />
        </mxCell>
        <mxCell id="N5L_XsWH65uDzCeL1PVR-22" value="Domain&amp;nbsp; \(B^2\) represents as a graph" style="text;html=1;strokeColor=none;fillColor=none;align=left;verticalAlign=middle;whiteSpace=wrap;rounded=0;" parent="1" vertex="1">
          <mxGeometry x="90" y="220" width="130" height="30" as="geometry" />
        </mxCell>
        <mxCell id="N5L_XsWH65uDzCeL1PVR-23" value="Illustration of Boolean function \(F\) that maps from \(B^n\) to \(B\)" style="text;html=1;strokeColor=none;fillColor=none;align=left;verticalAlign=middle;whiteSpace=wrap;rounded=0;" parent="1" vertex="1">
          <mxGeometry x="460" y="145" width="130" height="30" as="geometry" />
        </mxCell>
        <mxCell id="N5L_XsWH65uDzCeL1PVR-25" value="Definition of Boolean function \(F\)" style="text;html=1;strokeColor=none;fillColor=none;align=left;verticalAlign=middle;whiteSpace=wrap;rounded=0;" parent="1" vertex="1">
          <mxGeometry x="460" y="215" width="130" height="30" as="geometry" />
        </mxCell>
        <mxCell id="N5L_XsWH65uDzCeL1PVR-26" value="\((1, 0)\)" style="text;html=1;strokeColor=none;fillColor=none;align=center;verticalAlign=middle;whiteSpace=wrap;rounded=0;" parent="1" vertex="1">
          <mxGeometry x="340" y="370" width="40" height="20" as="geometry" />
        </mxCell>
        <mxCell id="N5L_XsWH65uDzCeL1PVR-27" value="\((0, 0)\)" style="text;html=1;strokeColor=none;fillColor=none;align=center;verticalAlign=middle;whiteSpace=wrap;rounded=0;" parent="1" vertex="1">
          <mxGeometry x="340" y="310" width="40" height="20" as="geometry" />
        </mxCell>
        <mxCell id="N5L_XsWH65uDzCeL1PVR-28" value="\((0, 1)\)" style="text;html=1;strokeColor=none;fillColor=none;align=center;verticalAlign=middle;whiteSpace=wrap;rounded=0;" parent="1" vertex="1">
          <mxGeometry x="340" y="340" width="40" height="20" as="geometry" />
        </mxCell>
        <mxCell id="N5L_XsWH65uDzCeL1PVR-29" value="\((1, 1)\)" style="text;html=1;strokeColor=none;fillColor=none;align=center;verticalAlign=middle;whiteSpace=wrap;rounded=0;" parent="1" vertex="1">
          <mxGeometry x="340" y="400" width="40" height="20" as="geometry" />
        </mxCell>
        <mxCell id="N5L_XsWH65uDzCeL1PVR-30" value="" style="shape=waypoint;sketch=0;fillStyle=solid;size=6;pointerEvents=1;points=[];fillColor=none;resizable=0;rotatable=0;perimeter=centerPerimeter;snapToPoint=1;" parent="1" vertex="1">
          <mxGeometry x="380" y="310" width="20" height="20" as="geometry" />
        </mxCell>
        <mxCell id="N5L_XsWH65uDzCeL1PVR-46" style="edgeStyle=orthogonalEdgeStyle;rounded=0;orthogonalLoop=1;jettySize=auto;html=1;endArrow=none;endFill=0;" parent="1" source="N5L_XsWH65uDzCeL1PVR-31" target="N5L_XsWH65uDzCeL1PVR-35" edge="1">
          <mxGeometry relative="1" as="geometry" />
        </mxCell>
        <mxCell id="N5L_XsWH65uDzCeL1PVR-31" value="" style="shape=waypoint;sketch=0;fillStyle=solid;size=6;pointerEvents=1;points=[];fillColor=none;resizable=0;rotatable=0;perimeter=centerPerimeter;snapToPoint=1;" parent="1" vertex="1">
          <mxGeometry x="380" y="340" width="20" height="20" as="geometry" />
        </mxCell>
        <mxCell id="N5L_XsWH65uDzCeL1PVR-44" style="rounded=0;orthogonalLoop=1;jettySize=auto;html=1;endArrow=none;endFill=0;" parent="1" source="N5L_XsWH65uDzCeL1PVR-32" target="N5L_XsWH65uDzCeL1PVR-37" edge="1">
          <mxGeometry relative="1" as="geometry" />
        </mxCell>
        <mxCell id="N5L_XsWH65uDzCeL1PVR-32" value="" style="shape=waypoint;sketch=0;fillStyle=solid;size=6;pointerEvents=1;points=[];fillColor=none;resizable=0;rotatable=0;perimeter=centerPerimeter;snapToPoint=1;" parent="1" vertex="1">
          <mxGeometry x="380" y="370" width="20" height="20" as="geometry" />
        </mxCell>
        <mxCell id="N5L_XsWH65uDzCeL1PVR-45" style="rounded=0;orthogonalLoop=1;jettySize=auto;html=1;jumpStyle=gap;jumpSize=8;endArrow=none;endFill=0;" parent="1" source="N5L_XsWH65uDzCeL1PVR-33" target="N5L_XsWH65uDzCeL1PVR-35" edge="1">
          <mxGeometry relative="1" as="geometry" />
        </mxCell>
        <mxCell id="N5L_XsWH65uDzCeL1PVR-33" value="" style="shape=waypoint;sketch=0;fillStyle=solid;size=6;pointerEvents=1;points=[];fillColor=none;resizable=0;rotatable=0;perimeter=centerPerimeter;snapToPoint=1;" parent="1" vertex="1">
          <mxGeometry x="380" y="400" width="20" height="20" as="geometry" />
        </mxCell>
        <mxCell id="N5L_XsWH65uDzCeL1PVR-34" value="\(0\)" style="text;html=1;strokeColor=none;fillColor=none;align=center;verticalAlign=middle;whiteSpace=wrap;rounded=0;" parent="1" vertex="1">
          <mxGeometry x="480" y="340" width="20" height="20" as="geometry" />
        </mxCell>
        <mxCell id="N5L_XsWH65uDzCeL1PVR-35" value="" style="shape=waypoint;sketch=0;fillStyle=solid;size=6;pointerEvents=1;points=[];fillColor=none;resizable=0;rotatable=0;perimeter=centerPerimeter;snapToPoint=1;" parent="1" vertex="1">
          <mxGeometry x="460" y="340" width="20" height="20" as="geometry" />
        </mxCell>
        <mxCell id="N5L_XsWH65uDzCeL1PVR-36" value="\(1\)" style="text;html=1;strokeColor=none;fillColor=none;align=center;verticalAlign=middle;whiteSpace=wrap;rounded=0;" parent="1" vertex="1">
          <mxGeometry x="480" y="370" width="20" height="20" as="geometry" />
        </mxCell>
        <mxCell id="N5L_XsWH65uDzCeL1PVR-37" value="" style="shape=waypoint;sketch=0;fillStyle=solid;size=6;pointerEvents=1;points=[];fillColor=none;resizable=0;rotatable=0;perimeter=centerPerimeter;snapToPoint=1;" parent="1" vertex="1">
          <mxGeometry x="460" y="370" width="20" height="20" as="geometry" />
        </mxCell>
        <mxCell id="N5L_XsWH65uDzCeL1PVR-38" value="" style="endArrow=none;html=1;rounded=0;endFill=0;midArrow=classic;" parent="1" source="N5L_XsWH65uDzCeL1PVR-30" target="N5L_XsWH65uDzCeL1PVR-35" edge="1">
          <mxGeometry width="50" height="50" relative="1" as="geometry">
            <mxPoint x="440" y="320" as="sourcePoint" />
            <mxPoint x="490" y="270" as="targetPoint" />
          </mxGeometry>
        </mxCell>
        <mxCell id="N5L_XsWH65uDzCeL1PVR-42" value="" style="endArrow=open;html=1;rounded=0;endFill=0;midArrow=classic;" parent="1" edge="1">
          <mxGeometry width="50" height="50" relative="1" as="geometry">
            <mxPoint x="422" y="332" as="sourcePoint" />
            <mxPoint x="430" y="335" as="targetPoint" />
          </mxGeometry>
        </mxCell>
        <mxCell id="N5L_XsWH65uDzCeL1PVR-47" value="" style="endArrow=open;html=1;rounded=0;endFill=0;midArrow=classic;" parent="1" edge="1">
          <mxGeometry width="50" height="50" relative="1" as="geometry">
            <mxPoint x="420" y="349.98" as="sourcePoint" />
            <mxPoint x="430" y="349.98" as="targetPoint" />
          </mxGeometry>
        </mxCell>
        <mxCell id="N5L_XsWH65uDzCeL1PVR-48" value="" style="endArrow=open;html=1;rounded=0;endFill=0;midArrow=classic;" parent="1" edge="1">
          <mxGeometry width="50" height="50" relative="1" as="geometry">
            <mxPoint x="450" y="365" as="sourcePoint" />
            <mxPoint x="458" y="359" as="targetPoint" />
          </mxGeometry>
        </mxCell>
        <mxCell id="N5L_XsWH65uDzCeL1PVR-49" value="" style="endArrow=open;html=1;rounded=0;endFill=0;midArrow=classic;" parent="1" edge="1">
          <mxGeometry width="50" height="50" relative="1" as="geometry">
            <mxPoint x="440" y="379.93" as="sourcePoint" />
            <mxPoint x="450" y="379.93" as="targetPoint" />
          </mxGeometry>
        </mxCell>
        <mxCell id="N5L_XsWH65uDzCeL1PVR-50" value="Boolean function&lt;br&gt;\(F(x,y) = x\overline{y}\)" style="text;html=1;strokeColor=none;fillColor=none;align=center;verticalAlign=middle;whiteSpace=wrap;rounded=0;" parent="1" vertex="1">
          <mxGeometry x="370" y="430" width="110" height="30" as="geometry" />
        </mxCell>
        <mxCell id="N5L_XsWH65uDzCeL1PVR-51" value="Boolean expression 1" style="text;html=1;strokeColor=none;fillColor=none;align=center;verticalAlign=middle;whiteSpace=wrap;rounded=0;" parent="1" vertex="1">
          <mxGeometry x="260" y="510" width="80" height="30" as="geometry" />
        </mxCell>
        <mxCell id="N5L_XsWH65uDzCeL1PVR-52" value="Boolean expression 2" style="text;html=1;strokeColor=none;fillColor=none;align=center;verticalAlign=middle;whiteSpace=wrap;rounded=0;" parent="1" vertex="1">
          <mxGeometry x="350" y="510" width="80" height="30" as="geometry" />
        </mxCell>
        <mxCell id="N5L_XsWH65uDzCeL1PVR-54" value="\(x \overline{y}\)" style="text;html=1;strokeColor=none;fillColor=none;align=center;verticalAlign=middle;whiteSpace=wrap;rounded=0;" parent="1" vertex="1">
          <mxGeometry x="290" y="550" width="40" height="20" as="geometry" />
        </mxCell>
        <mxCell id="N5L_XsWH65uDzCeL1PVR-55" value="\(x \overline{y} + 0\)" style="text;html=1;strokeColor=none;fillColor=none;align=center;verticalAlign=middle;whiteSpace=wrap;rounded=0;" parent="1" vertex="1">
          <mxGeometry x="370" y="550" width="40" height="20" as="geometry" />
        </mxCell>
        <mxCell id="N5L_XsWH65uDzCeL1PVR-57" value="\(x \overline{y} \cdot 1\)" style="text;html=1;strokeColor=none;fillColor=none;align=center;verticalAlign=middle;whiteSpace=wrap;rounded=0;" parent="1" vertex="1">
          <mxGeometry x="460" y="550" width="40" height="20" as="geometry" />
        </mxCell>
        <mxCell id="N5L_XsWH65uDzCeL1PVR-58" value="Boolean expression 3" style="text;html=1;strokeColor=none;fillColor=none;align=center;verticalAlign=middle;whiteSpace=wrap;rounded=0;" parent="1" vertex="1">
          <mxGeometry x="440" y="510" width="80" height="30" as="geometry" />
        </mxCell>
        <mxCell id="N5L_XsWH65uDzCeL1PVR-59" value="Boolean expression 4" style="text;html=1;strokeColor=none;fillColor=none;align=center;verticalAlign=middle;whiteSpace=wrap;rounded=0;" parent="1" vertex="1">
          <mxGeometry x="530" y="510" width="80" height="30" as="geometry" />
        </mxCell>
        <mxCell id="N5L_XsWH65uDzCeL1PVR-60" value="\(\overline{\overline{x} +y}\)" style="text;html=1;strokeColor=none;fillColor=none;align=center;verticalAlign=middle;whiteSpace=wrap;rounded=0;" parent="1" vertex="1">
          <mxGeometry x="550" y="550" width="40" height="20" as="geometry" />
        </mxCell>
        <mxCell id="N5L_XsWH65uDzCeL1PVR-61" value="" style="endArrow=classic;html=1;rounded=0;exitX=0.5;exitY=0;exitDx=0;exitDy=0;" parent="1" source="N5L_XsWH65uDzCeL1PVR-51" edge="1">
          <mxGeometry width="50" height="50" relative="1" as="geometry">
            <mxPoint x="400" y="480" as="sourcePoint" />
            <mxPoint x="383" y="466" as="targetPoint" />
          </mxGeometry>
        </mxCell>
        <mxCell id="N5L_XsWH65uDzCeL1PVR-62" value="" style="endArrow=classic;html=1;rounded=0;exitX=0.5;exitY=0;exitDx=0;exitDy=0;" parent="1" source="N5L_XsWH65uDzCeL1PVR-52" edge="1">
          <mxGeometry width="50" height="50" relative="1" as="geometry">
            <mxPoint x="310" y="520" as="sourcePoint" />
            <mxPoint x="411" y="467" as="targetPoint" />
          </mxGeometry>
        </mxCell>
        <mxCell id="N5L_XsWH65uDzCeL1PVR-63" value="" style="endArrow=classic;html=1;rounded=0;exitX=0.5;exitY=0;exitDx=0;exitDy=0;" parent="1" source="N5L_XsWH65uDzCeL1PVR-58" edge="1">
          <mxGeometry width="50" height="50" relative="1" as="geometry">
            <mxPoint x="400" y="520" as="sourcePoint" />
            <mxPoint x="434" y="467" as="targetPoint" />
          </mxGeometry>
        </mxCell>
        <mxCell id="N5L_XsWH65uDzCeL1PVR-64" value="" style="endArrow=classic;html=1;rounded=0;exitX=0.5;exitY=0;exitDx=0;exitDy=0;" parent="1" source="N5L_XsWH65uDzCeL1PVR-59" edge="1">
          <mxGeometry width="50" height="50" relative="1" as="geometry">
            <mxPoint x="490" y="520" as="sourcePoint" />
            <mxPoint x="460" y="466" as="targetPoint" />
          </mxGeometry>
        </mxCell>
        <mxCell id="N5L_XsWH65uDzCeL1PVR-65" value="\((1, 0)\)" style="text;html=1;strokeColor=none;fillColor=none;align=center;verticalAlign=middle;whiteSpace=wrap;rounded=0;" parent="1" vertex="1">
          <mxGeometry x="165" y="760" width="40" height="20" as="geometry" />
        </mxCell>
        <mxCell id="N5L_XsWH65uDzCeL1PVR-66" value="\((0, 0)\)" style="text;html=1;strokeColor=none;fillColor=none;align=center;verticalAlign=middle;whiteSpace=wrap;rounded=0;" parent="1" vertex="1">
          <mxGeometry x="165" y="700" width="40" height="20" as="geometry" />
        </mxCell>
        <mxCell id="N5L_XsWH65uDzCeL1PVR-67" value="\((0, 1)\)" style="text;html=1;strokeColor=none;fillColor=none;align=center;verticalAlign=middle;whiteSpace=wrap;rounded=0;" parent="1" vertex="1">
          <mxGeometry x="165" y="730" width="40" height="20" as="geometry" />
        </mxCell>
        <mxCell id="N5L_XsWH65uDzCeL1PVR-68" value="\((1, 1)\)" style="text;html=1;strokeColor=none;fillColor=none;align=center;verticalAlign=middle;whiteSpace=wrap;rounded=0;" parent="1" vertex="1">
          <mxGeometry x="165" y="790" width="40" height="20" as="geometry" />
        </mxCell>
        <mxCell id="N5L_XsWH65uDzCeL1PVR-69" value="" style="shape=waypoint;sketch=0;fillStyle=solid;size=6;pointerEvents=1;points=[];fillColor=none;resizable=0;rotatable=0;perimeter=centerPerimeter;snapToPoint=1;" parent="1" vertex="1">
          <mxGeometry x="205" y="700" width="20" height="20" as="geometry" />
        </mxCell>
        <mxCell id="N5L_XsWH65uDzCeL1PVR-70" value="" style="shape=waypoint;sketch=0;fillStyle=solid;size=6;pointerEvents=1;points=[];fillColor=none;resizable=0;rotatable=0;perimeter=centerPerimeter;snapToPoint=1;" parent="1" vertex="1">
          <mxGeometry x="205" y="730" width="20" height="20" as="geometry" />
        </mxCell>
        <mxCell id="N5L_XsWH65uDzCeL1PVR-71" value="" style="shape=waypoint;sketch=0;fillStyle=solid;size=6;pointerEvents=1;points=[];fillColor=none;resizable=0;rotatable=0;perimeter=centerPerimeter;snapToPoint=1;" parent="1" vertex="1">
          <mxGeometry x="205" y="760" width="20" height="20" as="geometry" />
        </mxCell>
        <mxCell id="N5L_XsWH65uDzCeL1PVR-72" value="" style="shape=waypoint;sketch=0;fillStyle=solid;size=6;pointerEvents=1;points=[];fillColor=none;resizable=0;rotatable=0;perimeter=centerPerimeter;snapToPoint=1;" parent="1" vertex="1">
          <mxGeometry x="205" y="790" width="20" height="20" as="geometry" />
        </mxCell>
        <mxCell id="N5L_XsWH65uDzCeL1PVR-73" value="\(0\)" style="text;html=1;strokeColor=none;fillColor=none;align=center;verticalAlign=middle;whiteSpace=wrap;rounded=0;" parent="1" vertex="1">
          <mxGeometry x="380" y="730" width="20" height="20" as="geometry" />
        </mxCell>
        <mxCell id="N5L_XsWH65uDzCeL1PVR-74" value="" style="shape=waypoint;sketch=0;fillStyle=solid;size=6;pointerEvents=1;points=[];fillColor=none;resizable=0;rotatable=0;perimeter=centerPerimeter;snapToPoint=1;" parent="1" vertex="1">
          <mxGeometry x="360" y="730" width="20" height="20" as="geometry" />
        </mxCell>
        <mxCell id="N5L_XsWH65uDzCeL1PVR-75" value="\(1\)" style="text;html=1;strokeColor=none;fillColor=none;align=center;verticalAlign=middle;whiteSpace=wrap;rounded=0;" parent="1" vertex="1">
          <mxGeometry x="380" y="760" width="20" height="20" as="geometry" />
        </mxCell>
        <mxCell id="N5L_XsWH65uDzCeL1PVR-76" value="" style="shape=waypoint;sketch=0;fillStyle=solid;size=6;pointerEvents=1;points=[];fillColor=none;resizable=0;rotatable=0;perimeter=centerPerimeter;snapToPoint=1;" parent="1" vertex="1">
          <mxGeometry x="360" y="760" width="20" height="20" as="geometry" />
        </mxCell>
        <mxCell id="N5L_XsWH65uDzCeL1PVR-77" value="\(|B^2| = 4\)" style="text;html=1;strokeColor=none;fillColor=none;align=center;verticalAlign=middle;whiteSpace=wrap;rounded=0;" parent="1" vertex="1">
          <mxGeometry x="160" y="820" width="70" height="20" as="geometry" />
        </mxCell>
        <mxCell id="N5L_XsWH65uDzCeL1PVR-78" value="\(|B| = 2\)" style="text;html=1;strokeColor=none;fillColor=none;align=center;verticalAlign=middle;whiteSpace=wrap;rounded=0;" parent="1" vertex="1">
          <mxGeometry x="340" y="820" width="70" height="20" as="geometry" />
        </mxCell>
        <mxCell id="N5L_XsWH65uDzCeL1PVR-79" value="" style="shape=curlyBracket;whiteSpace=wrap;html=1;rounded=1;flipH=1;labelPosition=right;verticalLabelPosition=middle;align=left;verticalAlign=middle;size=0.5;" parent="1" vertex="1">
          <mxGeometry x="235" y="710" width="20" height="90" as="geometry" />
        </mxCell>
        <mxCell id="N5L_XsWH65uDzCeL1PVR-80" value="" style="shape=curlyBracket;whiteSpace=wrap;html=1;rounded=1;flipH=1;labelPosition=right;verticalLabelPosition=middle;align=left;verticalAlign=middle;size=0.5;rotation=-180;" parent="1" vertex="1">
          <mxGeometry x="340" y="740" width="20" height="30" as="geometry" />
        </mxCell>
        <mxCell id="N5L_XsWH65uDzCeL1PVR-81" value="How many maps are there that you can connect?" style="text;html=1;strokeColor=none;fillColor=none;align=center;verticalAlign=middle;whiteSpace=wrap;rounded=0;" parent="1" vertex="1">
          <mxGeometry x="255" y="740" width="80" height="30" as="geometry" />
        </mxCell>
        <mxCell id="N5L_XsWH65uDzCeL1PVR-82" value="\[&lt;br&gt;\begin{align*}&lt;br&gt;F: B^2 &amp;amp;\rightarrow B \\&lt;br&gt;(x_1, x_2) &amp;amp;\mapsto \{0, 1\}&lt;br&gt;\end{align*}\]" style="text;html=1;strokeColor=none;fillColor=none;align=center;verticalAlign=middle;whiteSpace=wrap;rounded=0;" parent="1" vertex="1">
          <mxGeometry x="225" y="640" width="120" height="40" as="geometry" />
        </mxCell>
        <mxCell id="N5L_XsWH65uDzCeL1PVR-83" value="Degree" style="text;html=1;strokeColor=none;fillColor=none;align=left;verticalAlign=middle;whiteSpace=wrap;rounded=0;" parent="1" vertex="1">
          <mxGeometry x="205" y="920" width="80" height="20" as="geometry" />
        </mxCell>
        <mxCell id="N5L_XsWH65uDzCeL1PVR-84" value="Number of Boolean functions" style="text;html=1;strokeColor=none;fillColor=none;align=left;verticalAlign=middle;whiteSpace=wrap;rounded=0;" parent="1" vertex="1">
          <mxGeometry x="280" y="920" width="170" height="20" as="geometry" />
        </mxCell>
        <mxCell id="N5L_XsWH65uDzCeL1PVR-85" value="" style="endArrow=none;html=1;rounded=0;entryX=1;entryY=0;entryDx=0;entryDy=0;" parent="1" target="N5L_XsWH65uDzCeL1PVR-84" edge="1">
          <mxGeometry width="50" height="50" relative="1" as="geometry">
            <mxPoint x="200" y="920" as="sourcePoint" />
            <mxPoint x="320" y="890" as="targetPoint" />
          </mxGeometry>
        </mxCell>
        <mxCell id="N5L_XsWH65uDzCeL1PVR-86" value="" style="endArrow=none;html=1;rounded=0;entryX=1;entryY=0;entryDx=0;entryDy=0;" parent="1" edge="1">
          <mxGeometry width="50" height="50" relative="1" as="geometry">
            <mxPoint x="200" y="940" as="sourcePoint" />
            <mxPoint x="450" y="939.81" as="targetPoint" />
          </mxGeometry>
        </mxCell>
        <mxCell id="N5L_XsWH65uDzCeL1PVR-87" value="\(1\)" style="text;html=1;strokeColor=none;fillColor=none;align=left;verticalAlign=middle;whiteSpace=wrap;rounded=0;" parent="1" vertex="1">
          <mxGeometry x="205" y="940" width="35" height="20" as="geometry" />
        </mxCell>
        <mxCell id="N5L_XsWH65uDzCeL1PVR-88" value="\(2\)" style="text;html=1;strokeColor=none;fillColor=none;align=left;verticalAlign=middle;whiteSpace=wrap;rounded=0;" parent="1" vertex="1">
          <mxGeometry x="205" y="960" width="35" height="20" as="geometry" />
        </mxCell>
        <mxCell id="N5L_XsWH65uDzCeL1PVR-89" value="\(3\)" style="text;html=1;strokeColor=none;fillColor=none;align=left;verticalAlign=middle;whiteSpace=wrap;rounded=0;" parent="1" vertex="1">
          <mxGeometry x="205" y="980" width="35" height="20" as="geometry" />
        </mxCell>
        <mxCell id="N5L_XsWH65uDzCeL1PVR-90" value="\(4\)" style="text;html=1;strokeColor=none;fillColor=none;align=left;verticalAlign=middle;whiteSpace=wrap;rounded=0;" parent="1" vertex="1">
          <mxGeometry x="205" y="1000" width="35" height="20" as="geometry" />
        </mxCell>
        <mxCell id="N5L_XsWH65uDzCeL1PVR-91" value="\(5\)" style="text;html=1;strokeColor=none;fillColor=none;align=left;verticalAlign=middle;whiteSpace=wrap;rounded=0;" parent="1" vertex="1">
          <mxGeometry x="205" y="1020" width="35" height="20" as="geometry" />
        </mxCell>
        <mxCell id="N5L_XsWH65uDzCeL1PVR-92" value="\(6\)" style="text;html=1;strokeColor=none;fillColor=none;align=left;verticalAlign=middle;whiteSpace=wrap;rounded=0;" parent="1" vertex="1">
          <mxGeometry x="205" y="1040" width="35" height="20" as="geometry" />
        </mxCell>
        <mxCell id="N5L_XsWH65uDzCeL1PVR-93" value="\(4\)" style="text;html=1;strokeColor=none;fillColor=none;align=right;verticalAlign=middle;whiteSpace=wrap;rounded=0;" parent="1" vertex="1">
          <mxGeometry x="390" y="940" width="35" height="20" as="geometry" />
        </mxCell>
        <mxCell id="N5L_XsWH65uDzCeL1PVR-94" value="\(16\)" style="text;html=1;strokeColor=none;fillColor=none;align=right;verticalAlign=middle;whiteSpace=wrap;rounded=0;" parent="1" vertex="1">
          <mxGeometry x="390" y="960" width="35" height="20" as="geometry" />
        </mxCell>
        <mxCell id="N5L_XsWH65uDzCeL1PVR-95" value="\(256\)" style="text;html=1;strokeColor=none;fillColor=none;align=right;verticalAlign=middle;whiteSpace=wrap;rounded=0;" parent="1" vertex="1">
          <mxGeometry x="390" y="980" width="35" height="20" as="geometry" />
        </mxCell>
        <mxCell id="N5L_XsWH65uDzCeL1PVR-96" value="\(65,356\)" style="text;html=1;strokeColor=none;fillColor=none;align=right;verticalAlign=middle;whiteSpace=wrap;rounded=0;" parent="1" vertex="1">
          <mxGeometry x="340" y="1000" width="85" height="20" as="geometry" />
        </mxCell>
        <mxCell id="N5L_XsWH65uDzCeL1PVR-98" value="\(4,294,967,296\)" style="text;html=1;strokeColor=none;fillColor=none;align=right;verticalAlign=middle;whiteSpace=wrap;rounded=0;" parent="1" vertex="1">
          <mxGeometry x="250" y="1020" width="175" height="20" as="geometry" />
        </mxCell>
        <mxCell id="N5L_XsWH65uDzCeL1PVR-99" value="\(18,446,744,073,709,551,616\)" style="text;html=1;strokeColor=none;fillColor=none;align=right;verticalAlign=middle;whiteSpace=wrap;rounded=0;" parent="1" vertex="1">
          <mxGeometry x="250" y="1040" width="175" height="20" as="geometry" />
        </mxCell>
        <mxCell id="N5L_XsWH65uDzCeL1PVR-100" value="" style="endArrow=none;html=1;rounded=0;entryX=1;entryY=0;entryDx=0;entryDy=0;" parent="1" edge="1">
          <mxGeometry width="50" height="50" relative="1" as="geometry">
            <mxPoint x="200" y="1060" as="sourcePoint" />
            <mxPoint x="450" y="1060" as="targetPoint" />
          </mxGeometry>
        </mxCell>
        <mxCell id="N5L_XsWH65uDzCeL1PVR-101" value="" style="shape=curlyBracket;whiteSpace=wrap;html=1;rounded=1;labelPosition=left;verticalLabelPosition=middle;align=right;verticalAlign=middle;rotation=-90;" parent="1" vertex="1">
          <mxGeometry x="395" y="1055" width="10" height="40" as="geometry" />
        </mxCell>
        <mxCell id="N5L_XsWH65uDzCeL1PVR-102" value="" style="shape=curlyBracket;whiteSpace=wrap;html=1;rounded=1;labelPosition=left;verticalLabelPosition=middle;align=right;verticalAlign=middle;rotation=-90;" parent="1" vertex="1">
          <mxGeometry x="380" y="1060" width="10" height="70" as="geometry" />
        </mxCell>
        <mxCell id="N5L_XsWH65uDzCeL1PVR-103" value="million" style="text;html=1;strokeColor=none;fillColor=none;align=center;verticalAlign=middle;whiteSpace=wrap;rounded=0;" parent="1" vertex="1">
          <mxGeometry x="370" y="1080" width="60" height="10" as="geometry" />
        </mxCell>
        <mxCell id="N5L_XsWH65uDzCeL1PVR-104" value="billion" style="text;html=1;strokeColor=none;fillColor=none;align=center;verticalAlign=middle;whiteSpace=wrap;rounded=0;" parent="1" vertex="1">
          <mxGeometry x="355" y="1100" width="60" height="10" as="geometry" />
        </mxCell>
        <mxCell id="N5L_XsWH65uDzCeL1PVR-105" value="" style="shape=curlyBracket;whiteSpace=wrap;html=1;rounded=1;labelPosition=left;verticalLabelPosition=middle;align=right;verticalAlign=middle;rotation=-90;" parent="1" vertex="1">
          <mxGeometry x="365" y="1065" width="10" height="100" as="geometry" />
        </mxCell>
        <mxCell id="N5L_XsWH65uDzCeL1PVR-106" value="trillion" style="text;html=1;strokeColor=none;fillColor=none;align=center;verticalAlign=middle;whiteSpace=wrap;rounded=0;" parent="1" vertex="1">
          <mxGeometry x="340" y="1120" width="60" height="10" as="geometry" />
        </mxCell>
        <mxCell id="N5L_XsWH65uDzCeL1PVR-107" value="" style="shape=curlyBracket;whiteSpace=wrap;html=1;rounded=1;labelPosition=left;verticalLabelPosition=middle;align=right;verticalAlign=middle;rotation=-90;" parent="1" vertex="1">
          <mxGeometry x="352.18" y="1074.07" width="11.87" height="123.75" as="geometry" />
        </mxCell>
        <mxCell id="N5L_XsWH65uDzCeL1PVR-108" value="" style="shape=curlyBracket;whiteSpace=wrap;html=1;rounded=1;labelPosition=left;verticalLabelPosition=middle;align=right;verticalAlign=middle;rotation=-90;" parent="1" vertex="1">
          <mxGeometry x="340.98" y="1081.45" width="10.46" height="147.58" as="geometry" />
        </mxCell>
        <mxCell id="N5L_XsWH65uDzCeL1PVR-109" value="quadrillion" style="text;html=1;strokeColor=none;fillColor=none;align=center;verticalAlign=middle;whiteSpace=wrap;rounded=0;" parent="1" vertex="1">
          <mxGeometry x="328.11" y="1140" width="60" height="10" as="geometry" />
        </mxCell>
        <mxCell id="N5L_XsWH65uDzCeL1PVR-110" value="quintillion" style="text;html=1;strokeColor=none;fillColor=none;align=center;verticalAlign=middle;whiteSpace=wrap;rounded=0;" parent="1" vertex="1">
          <mxGeometry x="317.65" y="1160" width="60" height="10" as="geometry" />
        </mxCell>
        <mxCell id="N5L_XsWH65uDzCeL1PVR-112" value="\(\sim 10^6\)" style="text;html=1;strokeColor=none;fillColor=none;align=left;verticalAlign=middle;whiteSpace=wrap;rounded=0;" parent="1" vertex="1">
          <mxGeometry x="440" y="1077.03" width="70" height="15.93" as="geometry" />
        </mxCell>
        <mxCell id="N5L_XsWH65uDzCeL1PVR-113" value="\(\sim 10^9\)" style="text;html=1;strokeColor=none;fillColor=none;align=left;verticalAlign=middle;whiteSpace=wrap;rounded=0;" parent="1" vertex="1">
          <mxGeometry x="440" y="1097.03" width="70" height="15.93" as="geometry" />
        </mxCell>
        <mxCell id="N5L_XsWH65uDzCeL1PVR-114" value="\(\sim 10^{12}\)" style="text;html=1;strokeColor=none;fillColor=none;align=left;verticalAlign=middle;whiteSpace=wrap;rounded=0;" parent="1" vertex="1">
          <mxGeometry x="440" y="1117.03" width="70" height="15.93" as="geometry" />
        </mxCell>
        <mxCell id="N5L_XsWH65uDzCeL1PVR-115" value="\(\sim 10^{15}\)" style="text;html=1;strokeColor=none;fillColor=none;align=left;verticalAlign=middle;whiteSpace=wrap;rounded=0;" parent="1" vertex="1">
          <mxGeometry x="440" y="1137.03" width="70" height="15.93" as="geometry" />
        </mxCell>
        <mxCell id="N5L_XsWH65uDzCeL1PVR-116" value="\(\sim 10^{18}\)" style="text;html=1;strokeColor=none;fillColor=none;align=left;verticalAlign=middle;whiteSpace=wrap;rounded=0;" parent="1" vertex="1">
          <mxGeometry x="440" y="1154.07" width="70" height="15.93" as="geometry" />
        </mxCell>
      </root>
    </mxGraphModel>
  </diagram>
</mxfile>
